<?xml version="1.0" standalone="no"?>
<!DOCTYPE svg PUBLIC "-//W3C//DTD SVG 20010904//EN"
 "http://www.w3.org/TR/2001/REC-SVG-20010904/DTD/svg10.dtd">
<svg version="1.0" xmlns="http://www.w3.org/2000/svg"
 width="499.000000pt" height="499.000000pt" viewBox="0 0 499.000000 499.000000"
 preserveAspectRatio="xMidYMid meet">

<g transform="translate(0.000000,499.000000) scale(0.100000,-0.100000)"
fill="#000000" stroke="none">
<path d="M1632 3036 c-168 -43 -310 -160 -386 -319 -53 -111 -66 -167 -66
-296 0 -188 55 -326 180 -452 137 -138 273 -185 509 -177 124 5 143 8 215 37
125 51 367 225 350 252 -3 5 0 8 8 7 7 -2 12 3 10 10 -1 8 2 11 7 8 12 -8 73
62 65 75 -3 5 -2 9 3 8 21 -4 33 2 33 16 0 8 4 15 8 15 5 0 17 7 28 16 10 8
14 13 7 10 -8 -5 -8 0 0 18 7 14 14 20 17 15 3 -5 25 12 48 36 23 25 36 45 28
45 -7 0 -19 6 -25 13 -8 11 -5 19 13 36 19 18 25 19 35 8 9 -11 8 -17 -4 -27
-13 -11 -14 -10 -8 6 6 16 5 17 -9 4 -17 -16 -14 -30 6 -30 17 0 61 48 53 57
-4 3 -7 1 -7 -5 0 -7 -5 -12 -11 -12 -6 0 -8 7 -5 16 3 9 2 12 -5 9 -5 -4 -17
-1 -26 7 -14 11 -16 11 -8 -1 6 -11 4 -13 -8 -8 -9 3 -16 3 -16 -1 3 -21 -3
-34 -14 -29 -16 6 -91 -68 -83 -81 3 -6 -1 -13 -10 -16 -10 -4 -13 -2 -8 6 9
15 -2 6 -170 -129 -190 -154 -308 -205 -476 -204 -221 0 -408 133 -482 345
-17 49 -17 49 -11 11 22 -141 103 -264 225 -342 53 -33 168 -73 210 -73 18 0
40 -5 48 -10 24 -15 -85 -12 -158 5 -186 44 -334 185 -388 370 -23 79 -23 220
1 300 53 185 191 323 370 370 73 18 213 19 280 1 68 -18 142 -51 184 -83 25
-19 31 -21 21 -8 -41 53 -137 117 -228 152 -82 31 -263 41 -350 19z m1040
-676 c4 0 8 -7 8 -16 0 -14 -2 -15 -17 -3 -15 12 -16 12 -10 -3 3 -10 -1 -22
-11 -30 -13 -11 -14 -11 -7 2 15 24 13 52 -2 46 -8 -3 -12 -2 -10 2 2 4 7 16
12 27 7 19 7 19 18 -2 5 -13 14 -23 19 -23z m-52 -30 c0 -5 -7 -10 -16 -10 -8
0 -12 5 -9 10 3 6 10 10 16 10 5 0 9 -4 9 -10z m-30 -34 c0 -3 -4 -8 -10 -11
-5 -3 -10 -1 -10 4 0 6 5 11 10 11 6 0 10 -2 10 -4z m-10 -36 c0 -5 -5 -10
-11 -10 -5 0 -7 5 -4 10 3 6 8 10 11 10 2 0 4 -4 4 -10z"/>
<path d="M2860 2560 c-9 -6 -10 -10 -3 -10 6 0 15 5 18 10 8 12 4 12 -15 0z"/>
<path d="M2899 2543 c-13 -16 -12 -17 4 -4 16 13 21 21 13 21 -2 0 -10 -8 -17
-17z"/>
<path d="M2823 2535 c0 -8 4 -12 9 -9 4 3 8 9 8 15 0 5 -4 9 -8 9 -5 0 -9 -7
-9 -15z"/>
<path d="M2735 2479 c-4 -6 -5 -12 -2 -15 2 -3 7 2 10 11 7 17 1 20 -8 4z"/>
<path d="M2819 2473 c-13 -16 -12 -17 4 -4 16 13 21 21 13 21 -2 0 -10 -8 -17
-17z"/>
<path d="M2772 2454 c-7 -8 -8 -14 -3 -14 10 0 25 19 20 25 -2 1 -10 -3 -17
-11z"/>
</g>
</svg>
